<svg xmlns="http://www.w3.org/2000/svg" width="32" height="32" viewBox="0 0 32 32">
    <g fill="#000" fill-rule="nonzero">
        <ellipse cx="15.982" cy="15.908" rx="4.723" ry="4.577"/>
        <path d="M23.292 16.164c0 3.912-3.273 7.083-7.31 7.083-4.038 0-7.311-3.171-7.311-7.083 0-.701.106-1.379.302-2.018h-2.16v9.935c0 .515.42.935.934.935h16.379c.514 0 .935-.42.935-.935v-9.935h-2.07a6.89 6.89 0 0 1 .301 2.018zM21.333 11.464h2.658c.583 0 1.059-.476 1.059-1.058V7.87c0-.583-.476-1.059-1.059-1.059h-2.658c-.583 0-1.059.476-1.059 1.06v2.534c0 .582.476 1.058 1.059 1.058z"/>
        <path d="M15.96 0C7.144 0 0 7.145 0 15.96c0 8.813 7.145 15.958 15.96 15.958 8.813 0 15.958-7.145 15.958-15.959S24.773 0 15.96 0zm8.74 27.72H7.218c-1.66 0-3.019-1.23-3.019-3.019V7.218c0-1.79 1.358-3.019 3.02-3.019H24.7c1.661 0 3.02 1.23 3.02 3.019v17.483c0 1.79-1.36 3.019-3.02 3.019z"/>
    </g>
</svg>
