<svg xmlns="http://www.w3.org/2000/svg" width="32" height="32" viewBox="0 0 32 32">
    <path fill="#000" fill-rule="nonzero" d="M15.96 0C7.144 0 0 7.145 0 15.96c0 8.813 7.145 15.958 15.96 15.958 8.813 0 15.958-7.145 15.958-15.959S24.773 0 15.96 0zM9.98 26.764H5.492V12.33h4.486v14.435zM7.736 10.356a2.602 2.602 0 1 1 0-5.202 2.602 2.602 0 0 1 0 5.202zm19.046 16.408H22.3v-7.02c0-1.674-.03-3.827-2.332-3.827-2.333 0-2.692 1.823-2.692 3.706v7.141h-4.483V12.33h4.303v1.973h.06c.6-1.135 2.063-2.332 4.245-2.332 4.543 0 5.382 2.99 5.382 6.877v7.917z"/>
</svg>
