<svg xmlns="http://www.w3.org/2000/svg" xmlns:xlink="http://www.w3.org/1999/xlink" width="25" height="25" viewBox="0 0 25 25">
    <defs>
        <path id="a" d="M19.222 2.014L19.227 2h-7.728a.5.5 0 1 1 0-1h7.893c.743 0 1.015.59.783 1.317-.145.455-.488 1.07-1.034 1.863.667 1.082 1.28 2 1.837 2.752 1.271 1.717-1.36 3.899-2.673 2.3a25.852 25.852 0 0 1-1.61-2.23 6.237 6.237 0 0 1-1.113.682c-.397.182-.977.37-1.748.57v2.218c0 .898-.802 1.43-1.746 1.43-.945 0-1.747-.532-1.747-1.43V8.914a.5.5 0 1 1 1 0v1.558c0 .238.289.43.747.43.457 0 .746-.192.746-.43v-3l.381-.093c.907-.222 1.561-.425 1.95-.604.38-.174.826-.47 1.332-.891l.437-.364.305.48c.665 1.048 1.28 1.914 1.84 2.597.468.571 1.61-.375 1.095-1.07a42.1 42.1 0 0 1-2.057-3.105l-.171-.28.19-.269c.6-.848.965-1.477 1.086-1.86zM3.085 6.809c.53-.862 1.12-1.805 1.772-2.829-.449-.72-.749-1.277-.903-1.681C3.689 1.605 3.765 1 4.5 1h4a.5.5 0 0 1 0 1H4.911c.154.377.475.952.96 1.713l.17.269-.17.269C5.153 5.373 4.51 6.4 3.936 7.332c-.253.412-.138.872.233 1.17.335.268.665.252.857-.05a51.638 51.638 0 0 1 1.717-2.528l.295-.406.405.295a9.472 9.472 0 0 0 2.367 1.265.5.5 0 1 1-.34.94A10.387 10.387 0 0 1 7.27 6.91c-.49.692-.956 1.386-1.398 2.08-.544.855-1.564.904-2.326.293-.744-.595-.994-1.604-.46-2.473zM19.121 13H20v3.189l-.264.114a2.236 2.236 0 0 0-1.322 1.701l-.701 4.723H7.287l-.701-4.723a2.236 2.236 0 0 0-1.322-1.7L5 16.188V13h.879v1.904H19.12V13zm-1.575 4.868a3.109 3.109 0 0 1 1.32-2.085H6.134a3.109 3.109 0 0 1 1.32 2.085l.002.005.59 3.975h8.91l.591-3.98z"/>
    </defs>
    <g fill="none" fill-rule="evenodd">
        <mask id="b" fill="#fff">
            <use xlink:href="#a"/>
        </mask>
        <use fill="#979797" fill-rule="nonzero" xlink:href="#a"/>
        <g fill="#049CD5" mask="url(#b)">
            <path d="M0 0h25v25H0z"/>
        </g>
    </g>
</svg>


