<svg xmlns="http://www.w3.org/2000/svg" width="32" height="32" viewBox="0 0 32 32">
    <g fill="#000" fill-rule="nonzero">
        <path d="M13.051 19.457l7.165-3.715-7.165-3.737v7.452z"/>
        <path d="M15.96 0C7.144 0 0 7.145 0 15.96c0 8.813 7.145 15.958 15.96 15.958 8.813 0 15.958-7.145 15.958-15.959S24.773 0 15.96 0zm10.873 21.286c-.276 1.199-1.257 2.082-2.436 2.214-2.794.313-5.622.314-8.438.313-2.817.001-5.645 0-8.44-.313-1.18-.132-2.16-1.015-2.435-2.214-.393-1.707-.393-3.57-.393-5.327 0-1.757.005-3.62.398-5.327.275-1.198 1.255-2.082 2.435-2.214 2.794-.313 5.623-.314 8.44-.313 2.815-.001 5.643 0 8.437.313 1.18.132 2.16 1.015 2.436 2.214.393 1.707.39 3.57.39 5.327 0 1.757-.001 3.62-.394 5.327z"/>
    </g>
</svg>
